<?xml version="1.0" standalone="no"?>
<!DOCTYPE svg PUBLIC "-//W3C//DTD SVG 20010904//EN"
 "http://www.w3.org/TR/2001/REC-SVG-20010904/DTD/svg10.dtd">
<svg version="1.0" xmlns="http://www.w3.org/2000/svg"
 width="260.000000pt" height="260.000000pt" viewBox="0 0 260.000000 260.000000"
 preserveAspectRatio="xMidYMid meet">
<metadata>
Created by potrace 1.11, written by Peter Selinger 2001-2013
</metadata>
<g transform="translate(0.000000,260.000000) scale(0.100000,-0.100000)"
fill="#000000" stroke="none">
<path d="M1437 2413 c-3 -5 -8 -27 -12 -50 -7 -47 -8 -48 -35 -33 -52 28 -110
-30 -110 -111 0 -57 17 -82 56 -80 16 1 41 2 57 2 15 0 27 3 27 7 0 4 9 59 20
122 11 63 20 123 20 133 0 17 -15 24 -23 10z m-38 -117 c15 -18 4 -95 -17
-118 -34 -40 -72 -14 -72 49 0 65 56 109 89 69z"/>
<path d="M795 2375 c-46 -45 -30 -84 50 -121 45 -21 55 -46 29 -75 -24 -27
-68 -24 -92 6 -20 25 -42 33 -42 16 0 -6 10 -22 23 -37 46 -53 157 -23 157 43
0 39 -16 59 -64 77 -49 19 -61 37 -46 67 20 36 100 32 100 -5 0 -8 7 -16 15
-20 23 -8 19 30 -5 54 -29 29 -94 27 -125 -5z"/>
<path d="M1517 2394 c-9 -10 2 -24 19 -24 8 0 14 7 14 15 0 15 -21 21 -33 9z"/>
<path d="M1000 2359 c0 -12 -8 -23 -20 -26 -23 -6 -27 -23 -5 -23 18 0 18 -1
4 -73 -11 -64 -6 -92 18 -101 25 -10 40 11 19 27 -16 11 -16 19 -6 80 10 55
15 67 31 67 10 0 19 5 19 10 0 6 -7 10 -15 10 -9 0 -15 9 -15 25 0 16 -6 25
-15 25 -9 0 -15 -9 -15 -21z"/>
<path d="M1630 2329 c-50 -18 -77 -108 -49 -160 25 -47 102 -42 135 9 9 14 18
46 18 70 1 36 -4 48 -27 68 -30 26 -39 27 -77 13z m67 -45 c15 -23 15 -30 2
-67 -10 -29 -22 -44 -41 -51 -38 -13 -58 6 -58 58 0 75 62 113 97 60z"/>
<path d="M1090 2260 c-6 -38 -9 -79 -5 -90 8 -26 43 -40 71 -29 12 4 31 5 41
3 18 -5 21 3 32 73 7 43 15 86 17 96 4 11 0 17 -10 17 -17 0 -22 -14 -32 -85
-7 -54 -27 -85 -54 -85 -34 0 -42 24 -31 86 14 75 14 84 -3 84 -10 0 -18 -22
-26 -70z"/>
<path d="M1509 2328 c-1 -2 -9 -45 -18 -95 -16 -85 -16 -93 -1 -93 13 0 19 20
31 95 12 77 13 95 2 95 -7 0 -13 -1 -14 -2z"/>
<path d="M1229 2039 c-30 -30 -66 -62 -80 -71 -17 -11 -30 -33 -39 -65 -16
-58 -40 -103 -56 -103 -7 0 -28 -22 -47 -49 -20 -27 -54 -63 -76 -82 -23 -18
-52 -51 -65 -73 -37 -62 -73 -93 -94 -79 -21 13 -20 24 6 89 20 51 20 52 1 47
-15 -4 -19 0 -19 17 0 18 4 21 22 17 19 -5 18 -3 -7 18 -17 13 -35 24 -41 25
-7 0 -15 7 -18 16 -3 8 -10 13 -15 10 -18 -12 -40 6 -61 49 -14 30 -30 46 -53
55 -18 6 -44 18 -60 27 -25 13 -29 13 -51 -5 -14 -10 -37 -33 -51 -50 -15 -18
-32 -32 -38 -32 -7 0 -38 -25 -70 -55 -32 -30 -64 -55 -72 -55 -8 0 -24 -9
-35 -20 -11 -11 -24 -20 -29 -20 -5 0 -14 -7 -21 -15 -16 -20 -50 -19 -78 1
-13 9 -26 13 -30 9 -9 -8 26 -34 56 -42 13 -3 54 -36 92 -73 57 -56 77 -86
130 -193 34 -70 63 -127 65 -127 3 0 -21 79 -55 178 -23 65 -72 133 -134 184
-38 31 -45 52 -21 62 10 3 15 -1 15 -12 0 -18 49 -62 69 -62 17 0 70 -76 100
-144 17 -36 32 -66 35 -66 2 0 -7 34 -20 75 -19 61 -34 86 -76 131 -73 77 -93
114 -61 114 9 0 42 25 74 55 32 30 63 55 70 55 7 0 21 7 31 17 17 15 18 15 18
-1 0 -9 -4 -15 -9 -11 -18 10 -23 -16 -7 -34 9 -10 16 -35 17 -57 l1 -39 13
30 c8 17 14 59 15 95 1 82 18 110 55 90 19 -10 24 -19 20 -34 -6 -20 -5 -20 9
-3 15 19 56 16 56 -3 0 -5 -6 -7 -13 -4 -10 3 -18 -20 -30 -93 -24 -143 -27
-174 -16 -168 5 4 10 -6 10 -22 1 -23 3 -20 12 15 6 24 22 56 37 71 26 25 60
81 60 97 0 5 -16 -7 -35 -26 -28 -27 -35 -30 -40 -18 -4 9 1 30 10 48 9 17 13
39 10 50 -3 10 -2 21 4 24 5 3 11 -5 15 -17 4 -19 34 -42 66 -52 35 -11 60
-27 55 -35 -5 -8 -11 -7 -21 1 -15 13 -18 3 -14 -59 1 -20 -5 -41 -16 -53 -20
-22 -49 -26 -41 -5 3 8 9 31 13 51 6 36 6 36 -15 23 -11 -7 -21 -20 -21 -29 0
-9 -11 -37 -25 -63 -14 -26 -25 -56 -25 -67 0 -11 -7 -33 -15 -49 -19 -37 -4
-39 23 -5 11 14 26 23 34 20 8 -3 32 10 54 29 38 33 41 33 52 15 20 -31 14
-45 -30 -84 l-43 -37 48 32 49 32 24 -23 c13 -12 24 -28 24 -35 0 -7 11 -26
25 -42 13 -16 27 -48 31 -72 4 -24 18 -54 32 -69 l24 -26 -16 27 c-9 16 -19
49 -23 74 -3 26 -16 58 -29 74 -13 15 -24 33 -24 39 0 7 -16 27 -35 47 -37 37
-46 60 -19 50 16 -6 99 72 109 105 3 8 29 36 58 61 29 25 64 62 77 82 14 20
30 36 36 36 20 0 42 34 65 100 20 58 41 89 60 90 4 0 3 -19 -2 -41 -6 -23 -7
-44 -5 -47 7 -7 55 100 50 113 -3 6 11 26 31 45 40 38 32 42 95 -46 16 -23 35
-44 43 -47 7 -2 30 -39 51 -81 21 -44 49 -84 64 -94 15 -9 33 -22 40 -29 10
-9 19 -10 37 -1 22 10 28 7 70 -40 29 -32 51 -49 60 -45 20 7 19 -16 -4 -67
-19 -43 -27 -53 -100 -127 -22 -23 -41 -47 -41 -52 0 -6 -25 -22 -56 -37 -31
-15 -59 -35 -61 -44 -3 -10 -13 -20 -24 -23 -11 -3 -19 -14 -19 -26 0 -12 -4
-21 -8 -21 -5 0 -16 -15 -24 -34 -21 -42 -100 -108 -121 -100 -11 4 -21 -4
-31 -24 -21 -41 -46 -64 -62 -58 -8 3 -20 -6 -28 -22 -8 -15 -23 -36 -35 -46
-23 -21 -27 -41 -9 -52 7 -4 8 -3 4 5 -9 14 63 100 85 101 9 0 28 18 43 40 15
23 31 38 36 35 14 -9 89 45 115 83 l23 34 14 -25 c12 -23 79 -77 95 -77 4 0
15 -8 25 -17 10 -9 27 -17 38 -18 11 -1 55 -35 97 -77 43 -41 111 -107 152
-146 63 -61 72 -74 61 -87 -11 -13 -10 -14 4 -9 9 3 16 9 16 11 0 19 -50 79
-117 138 -42 39 -104 98 -136 132 -37 38 -65 59 -73 56 -8 -3 -24 3 -34 12
-19 18 -40 31 -87 56 -45 24 -51 129 -8 129 8 0 15 5 15 11 0 16 42 48 63 49
17 0 73 53 151 142 35 41 69 116 63 143 -4 23 18 51 28 35 3 -5 30 -25 59 -45
29 -19 58 -47 65 -62 7 -16 26 -50 43 -76 30 -46 31 -47 54 -32 13 8 34 15 47
15 12 0 28 5 34 11 8 8 13 8 17 0 4 -6 18 -11 31 -11 14 0 38 -15 61 -40 49
-52 108 -80 166 -80 28 0 50 -6 58 -15 7 -8 19 -15 28 -15 8 0 37 -24 65 -52
l49 -53 -54 70 c-81 103 -83 108 -57 154 17 31 19 42 10 60 -7 11 -21 21 -31
21 -22 0 -60 19 -72 35 -4 6 -8 19 -8 30 -1 11 -15 36 -32 55 -27 31 -30 32
-22 10 16 -50 8 -119 -16 -145 -12 -13 -20 -30 -17 -37 2 -7 0 -21 -5 -31 -6
-12 -5 -23 4 -35 12 -15 11 -15 -9 -1 -12 9 -31 27 -43 41 -26 34 -114 65
-135 48 -8 -7 -21 -10 -29 -7 -7 3 -24 -1 -36 -10 -19 -14 -23 -13 -36 3 -7
11 -25 42 -38 69 -23 46 -81 105 -105 105 -5 0 -20 13 -34 29 l-25 30 -23 -25
c-22 -23 -23 -23 -42 -6 -11 9 -32 34 -47 54 -26 35 -28 36 -49 22 -18 -13
-25 -13 -37 -3 -9 7 -26 18 -37 24 -11 5 -37 43 -57 83 -21 41 -49 86 -63 100
-15 15 -46 49 -70 76 l-44 49 -54 -54z"/>
<path d="M1257 2023 c-4 -3 -7 -17 -7 -29 0 -13 -9 -41 -21 -63 -11 -22 -18
-45 -14 -50 8 -14 -8 -43 -67 -118 -54 -70 -54 -75 3 -141 21 -23 29 -44 29
-70 1 -20 7 -55 15 -77 8 -22 15 -56 15 -76 0 -25 7 -43 25 -59 l25 -24 -17
35 c-15 28 -17 55 -15 157 3 105 1 122 -12 122 -9 0 -16 6 -16 13 0 8 -9 22
-20 32 -30 27 -24 55 20 103 30 33 40 52 40 77 0 20 6 35 15 39 12 4 15 20 13
71 -1 36 -3 65 -3 65 -1 0 -5 -3 -8 -7z"/>
<path d="M1310 1921 c0 -30 -5 -69 -12 -87 -10 -28 -9 -35 10 -59 12 -15 22
-35 22 -43 0 -14 2 -14 17 1 13 13 14 20 5 29 -7 7 -12 43 -12 93 0 56 -5 87
-15 101 -13 17 -14 15 -15 -35z"/>
<path d="M2195 1824 c-16 -13 -38 -23 -47 -20 -12 3 -25 -7 -39 -30 -12 -19
-54 -59 -95 -89 -41 -31 -74 -58 -74 -61 0 -8 133 86 160 115 22 22 47 37 112
69 4 2 3 -10 -3 -27 -16 -44 -6 -60 15 -25 10 16 33 40 52 53 30 21 35 22 49
8 8 -9 15 -25 15 -36 0 -11 11 -28 25 -37 19 -12 25 -25 26 -53 1 -41 13 -79
21 -65 3 5 8 26 12 46 4 21 16 44 28 52 19 13 25 13 52 0 l31 -15 -25 20 c-14
11 -31 19 -38 16 -7 -2 -33 16 -59 40 -26 25 -50 45 -55 45 -5 0 -17 5 -27 12
-15 9 -24 8 -46 -6 -25 -17 -29 -17 -37 -2 -12 21 -17 20 -53 -10z"/>
<path d="M1421 1727 c-1 -10 -11 -41 -22 -68 -19 -43 -20 -56 -11 -87 10 -31
8 -43 -15 -94 -29 -66 -26 -87 5 -34 27 46 45 113 38 141 -3 13 1 39 9 59 11
27 13 45 6 69 -5 17 -10 24 -10 14z"/>
<path d="M1585 1707 c-10 -18 -32 -66 -48 -107 -15 -41 -40 -87 -54 -102 -15
-15 -24 -30 -22 -33 9 -8 78 69 82 90 5 28 39 95 48 95 5 0 13 -8 18 -17 8
-14 10 -7 11 32 0 69 -11 81 -35 42z"/>
<path d="M993 1670 c-27 -33 -27 -39 -8 -63 13 -18 14 -18 23 0 13 26 24 93
15 92 -4 0 -18 -13 -30 -29z"/>
<path d="M1775 1623 c9 -21 13 -49 10 -64 -5 -22 4 -46 39 -106 40 -68 46 -74
46 -48 0 17 -12 57 -26 90 -14 33 -26 70 -28 81 -3 20 -42 84 -52 84 -2 0 3
-17 11 -37z"/>
<path d="M2487 1587 c4 -7 21 -32 37 -55 27 -39 28 -46 18 -76 -17 -46 -15
-56 13 -98 30 -45 31 -48 5 -41 -18 5 -18 2 8 -43 l27 -49 3 50 c2 28 -1 100
-8 162 -12 109 -13 112 -41 123 -15 7 -34 18 -40 26 -14 17 -33 19 -22 1z"/>
<path d="M30 1568 c0 -14 9 -33 19 -42 19 -17 19 -16 7 18 -16 46 -26 56 -26
24z"/>
<path d="M978 1531 c-21 -20 -38 -41 -38 -47 0 -6 -11 -28 -25 -49 -14 -20
-20 -35 -13 -33 7 3 25 26 39 53 26 46 59 78 59 55 0 -5 -4 -10 -8 -10 -15 0
-32 -50 -26 -75 6 -23 8 -24 27 -10 51 36 64 -2 22 -63 -14 -20 -25 -42 -25
-48 0 -15 29 -72 40 -79 5 -3 12 -26 16 -50 4 -27 10 -42 17 -38 6 4 7 -7 3
-33 -18 -107 -18 -101 -3 -81 21 25 29 103 16 150 -6 23 -22 64 -35 91 -24 50
-24 51 -6 66 14 12 18 28 18 70 l-1 55 -32 0 c-38 0 -39 1 -14 39 11 16 17 35
14 42 -8 23 15 16 31 -8 8 -13 18 -36 22 -53 4 -16 18 -43 31 -58 12 -16 23
-33 23 -39 0 -6 3 -9 6 -6 3 4 -6 28 -20 54 -14 27 -26 56 -26 64 0 27 -39 80
-57 79 -10 -1 -35 -18 -55 -38z"/>
<path d="M1736 1532 c-5 -16 -2 -40 10 -70 10 -26 23 -74 30 -107 l12 -60 1
63 c0 34 -3 62 -8 62 -8 0 -28 63 -34 110 l-3 25 -8 -23z"/>
<path d="M8 1431 c-2 -25 1 -41 7 -41 17 0 57 -47 101 -117 69 -108 63 -101
63 -80 1 10 -6 32 -15 48 -13 25 -138 217 -149 227 -1 2 -5 -15 -7 -37z"/>
<path d="M102 1445 c2 -5 13 -28 23 -50 9 -22 28 -51 41 -65 12 -14 28 -47 34
-75 7 -27 19 -65 28 -82 15 -32 14 -55 -3 -188 -5 -39 -5 -39 6 -10 6 17 23
45 36 63 35 47 48 99 30 120 -7 10 -21 41 -30 70 -9 30 -27 67 -39 83 -30 37
-132 147 -126 134z"/>
<path d="M1686 1427 c3 -10 9 -15 12 -12 3 3 0 11 -7 18 -10 9 -11 8 -5 -6z"/>
<path d="M1988 1422 c-23 -4 -23 -5 12 -77 31 -66 36 -59 17 25 -10 44 -16 55
-29 52z"/>
<path d="M1640 1406 c0 -21 29 -91 35 -85 5 6 -18 85 -28 95 -4 4 -7 0 -7 -10z"/>
<path d="M2095 1389 c4 -12 10 -44 14 -73 5 -34 20 -69 44 -105 l37 -53 0 83
c0 81 0 82 -20 64 -19 -17 -20 -17 -26 1 -16 46 -43 104 -49 104 -4 0 -3 -9 0
-21z"/>
<path d="M1705 1381 c10 -34 45 -90 45 -71 -1 8 -12 33 -26 55 -17 26 -23 32
-19 16z"/>
<path d="M921 1338 c0 -24 7 -59 14 -78 l13 -35 1 37 c1 20 5 48 11 62 7 20 6
24 -5 19 -9 -3 -15 1 -15 10 0 9 -4 19 -10 22 -6 4 -10 -11 -9 -37z"/>
<path d="M1550 1320 c-10 -18 -7 -26 22 -58 18 -21 41 -48 50 -62 15 -22 15
-18 -2 33 -11 32 -28 69 -39 83 -20 25 -20 25 -31 4z"/>
<path d="M688 1303 c-14 -16 -38 -46 -52 -67 -23 -35 -25 -41 -12 -55 8 -9 21
-43 29 -76 l14 -60 7 50 c8 51 40 135 51 135 3 0 19 -7 35 -15 17 -9 30 -13
30 -10 0 11 -63 125 -70 125 -3 0 -18 -12 -32 -27z"/>
<path d="M1954 1228 c3 -35 0 -58 -6 -60 -15 -5 20 -60 60 -93 l33 -27 -27 58
c-15 33 -30 77 -33 99 -4 22 -13 49 -20 60 -10 17 -12 12 -7 -37z"/>
<path d="M1500 1257 c0 -14 -5 -16 -27 -11 l-27 7 24 -34 c28 -40 83 -93 102
-97 7 -2 20 -9 28 -16 8 -7 21 -16 28 -21 27 -15 -15 49 -47 73 -17 12 -42 44
-55 70 -14 26 -25 39 -26 29z"/>
<path d="M2550 1226 c0 -3 9 -10 20 -16 11 -6 20 -8 20 -6 0 3 -9 10 -20 16
-11 6 -20 8 -20 6z"/>
<path d="M1396 1155 c4 -16 8 -62 10 -101 2 -65 6 -76 38 -119 34 -44 60 -112
69 -180 2 -16 5 0 6 38 1 51 4 67 15 67 8 0 18 -5 21 -10 4 -6 21 -8 39 -5 23
5 38 1 57 -14 l26 -20 -30 75 c-30 75 -30 76 -63 70 -54 -11 -75 8 -137 122
-32 59 -55 94 -51 77z"/>
<path d="M1650 1143 c0 -6 8 -17 18 -24 16 -13 16 -13 2 6 -8 11 -16 22 -17
24 -2 2 -3 0 -3 -6z"/>
<path d="M531 1109 c-13 -12 -28 -35 -33 -51 -10 -27 -11 -28 -24 -11 -12 17
-13 16 -14 -5 0 -55 -33 -137 -67 -169 -47 -45 -27 -42 26 3 39 34 101 140
101 174 0 7 9 28 21 46 24 39 22 42 -10 13z"/>
<path d="M1743 985 c48 -47 91 -85 95 -85 4 0 23 -25 41 -55 18 -30 36 -55 38
-55 3 0 -4 16 -16 36 -24 41 -26 48 -8 38 6 -4 1 5 -12 19 -14 15 -22 27 -19
27 17 0 -123 120 -162 138 -43 21 -42 19 43 -63z"/>
<path d="M1160 949 c0 -38 11 -69 24 -69 7 0 23 -11 36 -25 17 -18 23 -36 23
-70 0 -58 -17 -79 -34 -42 -11 24 -26 32 -51 28 -5 0 -8 4 -8 9 0 6 -4 10 -9
10 -4 0 -4 -21 2 -46 9 -37 14 -44 29 -41 33 9 76 -15 98 -55 12 -21 23 -38
26 -38 12 0 2 110 -11 124 -18 17 -19 40 -4 64 9 15 8 31 -6 73 -19 57 -29 69
-59 69 -11 0 -28 7 -38 17 -17 15 -18 15 -18 -8z"/>
<path d="M2352 623 c-34 -7 -75 -30 -64 -37 5 -3 15 1 22 9 7 8 24 15 39 16
14 0 35 4 46 9 l20 9 -20 -1 c-11 0 -30 -3 -43 -5z"/>
<path d="M419 525 c-12 -66 -12 -85 -3 -85 8 0 15 24 19 65 8 74 19 77 30 9 8
-54 14 -74 24 -74 4 0 22 27 41 60 18 33 35 58 37 56 3 -2 0 -28 -5 -57 -6
-30 -8 -56 -6 -59 10 -9 22 23 28 74 4 28 10 61 13 74 4 16 1 22 -10 22 -9 0
-32 -29 -53 -66 -26 -47 -39 -62 -45 -52 -5 7 -9 20 -9 28 0 8 -5 32 -11 53
-17 62 -34 46 -50 -48z"/>
<path d="M1516 593 c-12 -40 -27 -145 -22 -151 11 -10 16 5 26 63 5 32 11 60
13 62 3 2 10 -26 17 -62 7 -36 16 -65 21 -65 5 0 25 29 46 65 20 35 39 63 41
61 2 -2 -1 -21 -7 -43 -13 -46 -14 -83 -3 -83 5 0 15 38 23 85 14 78 14 85 -1
85 -10 0 -30 -26 -51 -65 -18 -36 -37 -65 -40 -65 -4 0 -12 29 -19 65 -12 64
-32 86 -44 48z"/>
<path d="M2273 557 c-38 -26 -41 -37 -10 -37 21 0 23 -4 20 -32 l-4 -33 40 45
c42 47 51 70 27 70 -8 0 -20 2 -28 4 -7 2 -27 -6 -45 -17z"/>
<path d="M625 526 c-11 -70 -6 -81 42 -82 l41 -2 7 47 c3 25 8 54 11 64 3 9 1
17 -5 17 -5 0 -15 -24 -21 -54 -11 -52 -29 -74 -52 -60 -6 4 -8 27 -4 60 7 65
-10 74 -19 10z"/>
<path d="M752 506 c-5 -34 -8 -63 -5 -66 7 -8 23 24 23 48 0 32 18 62 35 62 8
0 15 4 15 9 0 5 -13 9 -29 9 -27 -1 -29 -4 -39 -62z"/>
<path d="M844 555 c-2 -5 -7 -34 -12 -63 -7 -38 -6 -52 2 -49 6 2 14 23 18 47
9 50 19 63 44 58 20 -4 21 -10 11 -70 -8 -55 10 -47 21 9 14 63 3 84 -45 80
-19 -1 -37 -6 -39 -12z"/>
<path d="M993 563 c-7 -2 -13 -11 -13 -19 0 -11 4 -12 19 -3 19 13 51 6 51
-10 0 -5 -15 -12 -34 -15 -39 -7 -59 -27 -54 -53 2 -14 14 -18 49 -20 45 -1
45 -1 47 34 2 20 5 40 8 44 3 5 0 18 -6 29 -10 19 -39 25 -67 13z m47 -78 c0
-17 -36 -39 -50 -30 -14 9 -12 32 3 38 24 10 47 7 47 -8z"/>
<path d="M1105 533 c-15 -86 -12 -93 39 -93 l44 0 7 61 c10 89 -5 95 -19 8 -8
-46 -30 -67 -51 -49 -9 7 -13 22 -10 36 3 13 7 35 10 49 3 14 1 25 -4 25 -6 0
-13 -17 -16 -37z"/>
<path d="M1246 548 c-20 -28 -21 -82 -2 -97 19 -16 68 -10 74 7 3 11 0 12 -16
3 -26 -14 -28 -14 -46 5 -23 22 -11 34 35 34 34 0 39 3 39 23 0 48 -56 65 -84
25z m64 -13 c0 -10 -10 -15 -30 -15 -22 0 -28 4 -24 15 4 8 17 15 30 15 15 0
24 -6 24 -15z"/>
<path d="M1365 555 c-15 -50 -21 -115 -11 -112 6 2 15 24 20 50 5 32 14 48 27
52 10 4 19 10 19 15 0 11 -52 7 -55 -5z"/>
<path d="M1721 544 c-48 -61 -6 -125 63 -98 8 3 20 21 26 40 24 70 -45 114
-89 58z m73 -10 c16 -43 -29 -99 -60 -73 -30 25 -9 89 30 89 13 0 27 -7 30
-16z"/>
<path d="M1856 548 c-19 -27 -21 -79 -4 -96 36 -36 98 2 98 60 0 54 -64 79
-94 36z m72 -29 c4 -33 -27 -73 -51 -64 -20 8 -24 64 -5 83 21 21 53 10 56
-19z"/>
<path d="M1996 554 c-21 -21 -17 -34 18 -54 32 -17 35 -30 11 -45 -12 -8 -20
-5 -30 9 -17 22 -29 17 -19 -8 10 -25 70 -21 85 6 10 18 8 24 -11 40 -12 10
-28 18 -36 18 -8 0 -14 5 -14 10 0 18 31 24 52 11 17 -11 19 -10 16 6 -4 24
-51 29 -72 7z"/>
</g>
</svg>
